<svg width="600" height="600" viewBox="0 0 600 600" fill="none" xmlns="http://www.w3.org/2000/svg">
<g clip-path="url(#clip0)">
<path d="M283.99 208.48H179.148C178.633 208.479 178.139 208.274 177.775 207.91C177.411 207.546 177.207 207.052 177.206 206.537V180.521C177.207 180.006 177.411 179.512 177.775 179.148C178.139 178.784 178.633 178.579 179.148 178.579H283.99C284.505 178.579 284.998 178.784 285.362 179.148C285.726 179.512 285.931 180.006 285.931 180.521V206.537C285.931 207.052 285.726 207.546 285.362 207.91C284.998 208.274 284.505 208.479 283.99 208.48ZM179.148 179.356C178.839 179.356 178.543 179.479 178.324 179.697C178.106 179.916 177.983 180.212 177.983 180.521V206.537C177.983 206.846 178.106 207.143 178.324 207.361C178.543 207.58 178.839 207.702 179.148 207.703H283.99C284.299 207.702 284.595 207.58 284.813 207.361C285.032 207.143 285.154 206.846 285.155 206.537V180.521C285.154 180.212 285.032 179.916 284.813 179.697C284.595 179.479 284.299 179.356 283.99 179.356L179.148 179.356Z" fill="#3F3D56"/>
<path d="M195.438 200.443C199.806 200.443 203.347 196.9 203.347 192.531C203.347 188.161 199.806 184.619 195.438 184.619C191.07 184.619 187.529 188.161 187.529 192.531C187.529 196.9 191.07 200.443 195.438 200.443Z" fill="#E7B6CF"/>
<path d="M213.704 187.256C213.354 187.256 213.019 187.395 212.772 187.643C212.525 187.89 212.386 188.225 212.386 188.575C212.386 188.925 212.525 189.26 212.772 189.507C213.019 189.755 213.354 189.894 213.704 189.894H275.844C276.193 189.894 276.529 189.755 276.776 189.507C277.023 189.26 277.162 188.925 277.162 188.575C277.162 188.225 277.023 187.89 276.776 187.643C276.529 187.395 276.193 187.256 275.844 187.256H213.704Z" fill="#E6E6E6"/>
<path d="M213.704 195.168C213.354 195.168 213.019 195.307 212.772 195.554C212.525 195.802 212.386 196.137 212.386 196.487C212.386 196.836 212.525 197.172 212.772 197.419C213.019 197.666 213.354 197.805 213.704 197.805H240.443C240.616 197.806 240.788 197.772 240.948 197.706C241.108 197.64 241.254 197.542 241.377 197.42C241.499 197.297 241.596 197.152 241.663 196.992C241.729 196.832 241.763 196.66 241.763 196.487C241.763 196.313 241.729 196.142 241.663 195.982C241.596 195.821 241.499 195.676 241.377 195.553C241.254 195.431 241.108 195.334 240.948 195.268C240.788 195.202 240.616 195.168 240.443 195.168H213.704Z" fill="#E6E6E6"/>
<path d="M238.474 301.216H191.877C191.362 301.216 190.869 301.011 190.505 300.647C190.141 300.283 189.936 299.789 189.936 299.274V250.728C189.936 250.213 190.141 249.719 190.505 249.355C190.869 248.991 191.362 248.786 191.877 248.786H238.474C238.988 248.786 239.482 248.991 239.846 249.355C240.21 249.719 240.415 250.213 240.415 250.728V299.274C240.415 299.789 240.21 300.283 239.846 300.647C239.482 301.011 238.988 301.216 238.474 301.216ZM191.877 249.562C191.568 249.563 191.272 249.686 191.054 249.904C190.835 250.123 190.712 250.419 190.712 250.728V299.274C190.712 299.583 190.835 299.879 191.054 300.098C191.272 300.316 191.568 300.439 191.877 300.439H238.474C238.783 300.439 239.079 300.316 239.297 300.098C239.515 299.879 239.638 299.583 239.639 299.274V250.728C239.638 250.419 239.515 250.123 239.297 249.904C239.079 249.686 238.783 249.563 238.474 249.562H191.877Z" fill="#3F3D56"/>
<path d="M201.806 258.797C201.457 258.797 201.122 258.936 200.874 259.183C200.627 259.43 200.488 259.766 200.488 260.115C200.488 260.465 200.627 260.8 200.874 261.048C201.122 261.295 201.457 261.434 201.806 261.434H228.545C228.895 261.434 229.23 261.295 229.477 261.048C229.725 260.8 229.864 260.465 229.864 260.115C229.864 259.766 229.725 259.43 229.477 259.183C229.23 258.936 228.895 258.797 228.545 258.797H201.806Z" fill="#E6E6E6"/>
<path d="M201.806 266.566C201.633 266.565 201.461 266.599 201.301 266.665C201.141 266.731 200.995 266.828 200.872 266.951C200.75 267.073 200.652 267.219 200.586 267.379C200.52 267.539 200.485 267.711 200.485 267.884C200.485 268.058 200.52 268.229 200.586 268.389C200.652 268.549 200.75 268.695 200.872 268.817C200.995 268.94 201.141 269.037 201.301 269.103C201.461 269.169 201.633 269.203 201.806 269.203H228.545C228.894 269.203 229.23 269.064 229.477 268.817C229.724 268.569 229.863 268.234 229.863 267.884C229.863 267.534 229.724 267.199 229.477 266.952C229.23 266.705 228.894 266.566 228.545 266.566H201.806Z" fill="#E6E6E6"/>
<path d="M215.176 291.205C213.535 291.205 211.931 290.718 210.566 289.806C209.202 288.894 208.138 287.598 207.51 286.081C206.882 284.565 206.718 282.896 207.038 281.286C207.358 279.676 208.149 278.197 209.309 277.036C210.469 275.875 211.948 275.085 213.557 274.765C215.167 274.444 216.835 274.609 218.351 275.237C219.867 275.865 221.163 276.929 222.075 278.294C222.986 279.659 223.473 281.264 223.473 282.905C223.47 285.106 222.595 287.215 221.04 288.771C219.484 290.327 217.376 291.203 215.176 291.205Z" fill="#E7B6CF"/>
<path d="M314.807 140H361.403C361.918 140.001 362.412 140.205 362.776 140.57C363.14 140.934 363.344 141.427 363.345 141.942V190.489C363.344 191.004 363.14 191.497 362.776 191.861C362.412 192.225 361.918 192.43 361.403 192.431H314.807C314.292 192.43 313.799 192.225 313.435 191.861C313.071 191.497 312.866 191.004 312.865 190.489V141.942C312.866 141.427 313.071 140.934 313.435 140.57C313.799 140.205 314.292 140.001 314.807 140ZM361.403 191.654C361.712 191.654 362.008 191.531 362.227 191.312C362.445 191.094 362.568 190.798 362.568 190.489V141.942C362.568 141.633 362.445 141.337 362.227 141.119C362.008 140.9 361.712 140.777 361.403 140.777H314.807C314.498 140.777 314.202 140.9 313.983 141.119C313.765 141.337 313.642 141.633 313.642 141.942V190.489C313.642 190.798 313.765 191.094 313.983 191.312C314.202 191.531 314.498 191.654 314.807 191.654H361.403Z" fill="#3F3D56"/>
<path d="M351.475 182.42C351.825 182.42 352.16 182.281 352.407 182.033C352.654 181.786 352.793 181.451 352.793 181.101C352.793 180.751 352.654 180.416 352.407 180.169C352.16 179.921 351.825 179.782 351.475 179.782H324.736C324.387 179.782 324.051 179.921 323.804 180.169C323.557 180.416 323.418 180.751 323.418 181.101C323.418 181.451 323.557 181.786 323.804 182.033C324.051 182.281 324.387 182.42 324.736 182.42H351.475Z" fill="#E6E6E6"/>
<path d="M351.475 174.651C351.825 174.651 352.16 174.512 352.407 174.265C352.654 174.017 352.793 173.682 352.793 173.332C352.793 172.982 352.654 172.647 352.407 172.4C352.16 172.152 351.825 172.014 351.475 172.014H324.736C324.387 172.014 324.051 172.152 323.804 172.4C323.557 172.647 323.418 172.982 323.418 173.332C323.418 173.682 323.557 174.017 323.804 174.265C324.051 174.512 324.387 174.651 324.736 174.651H351.475Z" fill="#E6E6E6"/>
<path d="M338.106 150.011C339.747 150.011 341.351 150.498 342.715 151.41C344.08 152.322 345.143 153.618 345.771 155.135C346.399 156.652 346.563 158.32 346.243 159.93C345.923 161.54 345.133 163.019 343.972 164.18C342.812 165.341 341.334 166.131 339.724 166.452C338.115 166.772 336.447 166.608 334.93 165.979C333.414 165.351 332.119 164.287 331.207 162.922C330.295 161.557 329.809 159.953 329.809 158.311C329.811 156.111 330.686 154.001 332.241 152.445C333.797 150.889 335.906 150.014 338.106 150.011Z" fill="#E7B6CF"/>
<path d="M177.805 240.435C186.051 234.046 195.685 229.69 205.926 227.718C216.249 225.75 226.894 226.297 236.961 229.313C242.021 230.821 246.884 232.928 251.444 235.591C256.09 238.308 260.288 241.653 264.328 245.195C268.42 248.782 272.378 252.53 276.649 255.907C288.845 265.659 303.986 270.987 319.599 271.022C320.889 271.024 322.178 270.988 323.466 270.915C324.164 270.877 324.169 269.785 323.466 269.824C307.551 270.7 291.834 265.949 279.068 256.403C274.64 253.091 270.598 249.304 266.47 245.634C262.469 242.076 258.361 238.615 253.821 235.757C242.717 228.759 229.799 225.187 216.679 225.486C203.559 225.785 190.817 229.943 180.043 237.439C179.019 238.152 178.018 238.897 177.034 239.663C176.48 240.094 177.258 240.862 177.805 240.435V240.435Z" fill="#3F3D56"/>
<path d="M177.226 245.711C180.357 245.711 182.896 243.171 182.896 240.038C182.896 236.906 180.357 234.366 177.226 234.366C174.094 234.366 171.556 236.906 171.556 240.038C171.556 243.171 174.094 245.711 177.226 245.711Z" fill="#3F3D56"/>
<path d="M388.17 321.024C391.302 321.024 393.84 318.484 393.84 315.352C393.84 312.219 391.302 309.679 388.17 309.679C385.039 309.679 382.5 312.219 382.5 315.352C382.5 318.484 385.039 321.024 388.17 321.024Z" fill="#3F3D56"/>
<path d="M417.876 283.039H325.355C324.84 283.039 324.346 282.834 323.982 282.47C323.618 282.106 323.414 281.612 323.413 281.097V232.939C323.414 232.424 323.618 231.93 323.982 231.566C324.346 231.202 324.84 230.997 325.355 230.997H417.876C418.39 230.997 418.884 231.202 419.248 231.566C419.612 231.93 419.817 232.424 419.817 232.939V281.097C419.817 281.612 419.612 282.106 419.248 282.47C418.884 282.834 418.39 283.039 417.876 283.039ZM325.355 231.774C325.046 231.774 324.75 231.897 324.531 232.115C324.313 232.334 324.19 232.63 324.19 232.939V281.097C324.19 281.406 324.313 281.702 324.531 281.921C324.75 282.139 325.046 282.262 325.355 282.262H417.876C418.185 282.262 418.481 282.139 418.699 281.921C418.917 281.702 419.04 281.406 419.041 281.097V232.939C419.04 232.63 418.917 232.334 418.699 232.115C418.481 231.897 418.185 231.774 417.876 231.774H325.355Z" fill="#3F3D56"/>
<path d="M340.868 255.968C345.236 255.968 348.776 252.426 348.776 248.057C348.776 243.687 345.236 240.145 340.868 240.145C336.5 240.145 332.959 243.687 332.959 248.057C332.959 252.426 336.5 255.968 340.868 255.968Z" fill="#E7B6CF"/>
<path d="M359.133 242.782C358.96 242.782 358.788 242.816 358.628 242.882C358.468 242.948 358.322 243.045 358.199 243.168C358.077 243.29 357.979 243.435 357.913 243.596C357.847 243.756 357.812 243.927 357.812 244.101C357.812 244.274 357.847 244.446 357.913 244.606C357.979 244.766 358.077 244.912 358.199 245.034C358.322 245.156 358.468 245.254 358.628 245.32C358.788 245.386 358.96 245.42 359.133 245.419H408.952C409.302 245.419 409.637 245.28 409.884 245.033C410.131 244.786 410.27 244.45 410.27 244.101C410.27 243.751 410.131 243.416 409.884 243.168C409.637 242.921 409.302 242.782 408.952 242.782H359.133Z" fill="#E6E6E6"/>
<path d="M359.133 250.694C358.96 250.694 358.788 250.727 358.628 250.793C358.468 250.86 358.322 250.957 358.199 251.079C358.077 251.202 357.979 251.347 357.913 251.507C357.847 251.667 357.813 251.839 357.812 252.012C357.813 252.186 357.847 252.357 357.913 252.518C357.979 252.678 358.077 252.823 358.199 252.946C358.322 253.068 358.468 253.165 358.628 253.231C358.788 253.297 358.96 253.331 359.133 253.331H385.872C386.222 253.331 386.557 253.192 386.804 252.945C387.051 252.698 387.19 252.362 387.19 252.012C387.19 251.663 387.051 251.327 386.804 251.08C386.557 250.833 386.222 250.694 385.872 250.694H359.133Z" fill="#E6E6E6"/>
<path d="M334.802 263.342C333.799 263.342 332.983 263.934 332.983 264.661C332.983 265.388 333.799 265.979 334.802 265.979H408.215C409.218 265.979 410.034 265.388 410.034 264.661C410.034 263.934 409.218 263.342 408.215 263.342H334.802Z" fill="#E6E6E6"/>
<path d="M334.802 271.254C333.799 271.254 332.983 271.845 332.983 272.572C332.983 273.299 333.799 273.891 334.802 273.891H408.215C409.218 273.891 410.034 273.299 410.034 272.572C410.034 271.845 409.218 271.254 408.215 271.254H334.802Z" fill="#E6E6E6"/>
<path d="M317.917 320.632C323.137 318.367 328.965 320.342 333.884 322.43C336.418 323.505 338.925 324.653 341.547 325.502C343.753 326.214 346.012 326.75 348.303 327.103C352.901 327.808 357.576 327.836 362.182 327.188C366.811 326.543 371.322 325.23 375.575 323.292C379.805 321.375 383.714 318.818 387.167 315.711C387.606 315.314 388.037 314.908 388.459 314.493C388.961 314 388.19 313.229 387.688 313.721C384.363 316.963 380.546 319.658 376.38 321.707C372.23 323.748 367.803 325.171 363.241 325.929C358.665 326.701 353.998 326.781 349.397 326.168C347.102 325.858 344.835 325.365 342.618 324.694C340.072 323.865 337.574 322.895 335.137 321.787C330.171 319.654 324.654 317.565 319.197 319.036C318.572 319.209 317.96 319.427 317.367 319.69C316.724 319.969 317.279 320.909 317.917 320.632V320.632Z" fill="#3F3D56"/>
<path d="M315.9 334.019H272.188L282.475 316.195C282.66 315.876 282.925 315.61 283.244 315.426C283.564 315.241 283.926 315.144 284.295 315.144C284.663 315.144 285.026 315.241 285.345 315.426C285.664 315.61 285.929 315.876 286.114 316.195L290.508 323.809L297.98 310.863C298.211 310.463 298.543 310.131 298.943 309.9C299.343 309.669 299.796 309.547 300.258 309.547C300.72 309.547 301.173 309.669 301.573 309.9C301.973 310.131 302.305 310.463 302.536 310.863L315.9 334.019Z" fill="#E7B6CF"/>
<path d="M315.941 334.015H269.345C268.83 334.014 268.337 333.809 267.973 333.445C267.609 333.081 267.404 332.587 267.403 332.072V306.056C267.404 305.541 267.609 305.047 267.973 304.683C268.337 304.319 268.83 304.114 269.345 304.114H315.941C316.456 304.114 316.95 304.319 317.314 304.683C317.678 305.047 317.882 305.541 317.883 306.056V332.072C317.882 332.587 317.678 333.081 317.314 333.445C316.95 333.809 316.456 334.014 315.941 334.015ZM269.345 304.891C269.036 304.891 268.74 305.014 268.521 305.232C268.303 305.451 268.18 305.747 268.18 306.056V332.072C268.18 332.381 268.303 332.678 268.521 332.896C268.74 333.114 269.036 333.237 269.345 333.238H315.941C316.25 333.237 316.546 333.114 316.765 332.896C316.983 332.678 317.106 332.381 317.106 332.072V306.056C317.106 305.747 316.983 305.451 316.765 305.232C316.546 305.014 316.25 304.891 315.941 304.891H269.345Z" fill="#3F3D56"/>
<path d="M407.334 311.117L399.029 315.337C396.064 316.843 393.203 316.585 392.108 313.445C391.847 312.698 391.751 311.903 391.825 311.115C391.9 310.327 392.144 309.564 392.541 308.88C392.938 308.195 393.478 307.604 394.124 307.147C394.77 306.691 395.507 306.379 396.285 306.234L404.179 304.759L437.987 293.539L458.466 279.012L465.973 290.977L442.31 303.75L407.334 311.117Z" fill="#FFB8B8"/>
<path d="M446.107 451.165L439.752 450.106L440.458 438.098H447.166L446.107 451.165Z" fill="#FFB8B8"/>
<path d="M507.783 439.437L501.633 441.356L496.854 430.319L502.841 427.295L507.783 439.437Z" fill="#FFB8B8"/>
<path d="M504.358 428.915L496.591 432.094L459.522 383.357L447.872 440.57L440.105 439.157C435.123 389.832 431.06 339.521 436.045 315.725L464.818 314.489L477.88 356.163L484.235 384.416L504.358 428.915Z" fill="#2F2E41"/>
<path d="M445.757 460.876C444.595 461.125 443.384 460.997 442.301 460.509L438.526 458.809C435.36 458.647 433.205 459.277 431.443 456.977C430.945 456.319 430.633 455.54 430.538 454.721C430.444 453.902 430.57 453.073 430.903 452.319C431.234 451.562 431.76 450.907 432.428 450.422C433.095 449.936 433.88 449.636 434.701 449.554L439.886 446.286L440.159 448.736C442.528 450.079 445.342 449.499 448.323 448.192L449.95 453.889C450.16 454.624 450.217 455.394 450.117 456.152C450.017 456.909 449.763 457.638 449.37 458.293C448.976 458.948 448.453 459.516 447.831 459.96C447.21 460.404 446.504 460.716 445.757 460.876Z" fill="#2F2E41"/>
<path d="M510.299 449.188C509.281 449.801 508.094 450.073 506.91 449.964L502.788 449.583C499.742 450.457 497.908 451.754 495.494 450.15C494.811 449.69 494.262 449.055 493.907 448.311C493.551 447.567 493.401 446.741 493.472 445.92C493.54 445.097 493.825 444.307 494.298 443.63C494.772 442.954 495.417 442.416 496.167 442.071L500.01 437.296L501.063 439.525C503.74 440.025 506.213 438.563 508.608 436.358L511.997 441.218C512.434 441.845 512.737 442.555 512.889 443.303C513.04 444.052 513.036 444.824 512.877 445.572C512.718 446.319 512.407 447.026 511.963 447.648C511.52 448.27 510.953 448.794 510.299 449.188Z" fill="#2F2E41"/>
<path d="M454.226 264.339C461.245 264.339 466.935 258.647 466.935 251.625C466.935 244.604 461.245 238.911 454.226 238.911C447.207 238.911 441.517 244.604 441.517 251.625C441.517 258.647 447.207 264.339 454.226 264.339Z" fill="#FFB8B8"/>
<path d="M469.76 278.466L453.167 274.935L451.049 261.161L462.699 258.689L469.76 278.466Z" fill="#FFB8B8"/>
<path d="M465.171 316.255H435.516L442.2 299.467C441.714 293.69 444.162 289.441 447.664 285.742L452.108 274.581C459.289 269.854 464.702 270.207 470.466 276.347C477.301 286.027 472.57 300.579 465.171 316.255Z" fill="#E7B6CF"/>
<path d="M451.755 351.925L450.912 361.205C450.611 364.518 448.872 366.805 445.631 366.064C444.859 365.888 444.135 365.547 443.508 365.064C442.881 364.582 442.365 363.97 441.996 363.27C441.627 362.57 441.414 361.798 441.37 361.008C441.327 360.217 441.455 359.427 441.746 358.691L444.694 351.219L453.167 316.608L451.755 291.533H465.877L464.111 318.374L451.755 351.925Z" fill="#FFB8B8"/>
<path d="M466.935 292.24H450.695L451.834 281.642C451.909 279.809 452.666 278.07 453.956 276.767C455.247 275.464 456.978 274.691 458.81 274.599C459.78 274.551 460.751 274.695 461.665 275.024C462.579 275.354 463.419 275.861 464.136 276.517C464.854 277.173 465.433 277.965 465.843 278.846C466.252 279.728 466.482 280.682 466.52 281.654L466.935 292.24Z" fill="#E7B6CF"/>
<path d="M469.956 238.553C472.594 238.553 474.733 236.413 474.733 233.774C474.733 231.134 472.594 228.995 469.956 228.995C467.317 228.995 465.179 231.134 465.179 233.774C465.179 236.413 467.317 238.553 469.956 238.553Z" fill="#2F2E41"/>
<path d="M465.034 232.604C465.112 231.391 465.65 230.254 466.537 229.425C467.424 228.595 468.594 228.134 469.808 228.137C469.71 228.125 469.612 228.11 469.511 228.103C468.248 228.023 467.003 228.447 466.052 229.284C465.102 230.121 464.522 231.301 464.441 232.566C464.359 233.83 464.783 235.075 465.619 236.027C466.455 236.978 467.635 237.559 468.898 237.641C468.999 237.648 469.098 237.645 469.197 237.645C467.992 237.493 466.891 236.886 466.117 235.949C465.344 235.013 464.956 233.816 465.034 232.604Z" fill="#2F2E41"/>
<path d="M465.006 234.645C460.746 231.109 448.526 235.602 447.738 237.98C441.976 238.765 437.614 242.128 437.614 248.106V248.106C441.04 249.51 444.935 249.337 449.146 248.106C455.859 253.579 456.319 260.459 452.237 268.36L457.259 268.461L463.485 259.359L463.783 268.591L475.295 268.36V255.129C475.333 250.73 474.32 246.385 472.343 242.456C470.549 238.969 467.765 236.933 465.006 234.645Z" fill="#2F2E41"/>
<path d="M454.285 258.021C455.547 258.021 456.57 256.589 456.57 254.822C456.57 253.055 455.547 251.622 454.285 251.622C453.024 251.622 452.001 253.055 452.001 254.822C452.001 256.589 453.024 258.021 454.285 258.021Z" fill="#FFB8B8"/>
<path d="M166.853 258.882C166.853 258.882 168.228 235.071 175.367 240.481C182.506 245.892 172.249 261.09 172.249 261.09L166.853 258.882Z" fill="#FFB9B9"/>
<path d="M140.293 329.509C140.293 329.509 156.151 347.319 147.278 348.543C138.406 349.767 134.916 331.765 134.916 331.765L140.293 329.509Z" fill="#FFB9B9"/>
<path d="M119.599 245.209C121.589 245.733 123.38 246.833 124.747 248.372C126.115 249.911 126.997 251.82 127.283 253.859L132.327 289.775L139.399 318.425C139.399 318.425 142.934 321.609 141.52 323.377C140.106 325.146 143.288 332.573 143.288 332.573L134.449 335.403C134.449 335.403 133.388 327.975 131.62 327.621C130.066 327.311 112.674 280.833 108.482 269.574C107.904 268.021 107.577 267.138 107.577 267.138C107.577 267.138 108.284 243.44 119.599 245.209Z" fill="#BA5378"/>
<path d="M121.213 432.509L126.643 442.134C130.847 451.114 127.111 452.745 116.802 448.294L114.452 436.929L121.213 432.509Z" fill="#FFB9B9"/>
<path d="M123.953 445.302C123.953 445.302 126.53 441.104 127.463 441.806C128.395 442.509 132.24 445.554 132.24 445.554L137.248 450.353C137.248 450.353 154.169 452.142 143.417 458.073C132.665 464.004 126.723 459.086 126.723 459.086C126.723 459.086 111.664 459.87 111.907 455.667C112.15 451.464 117.007 444.814 117.007 444.814C117.007 444.814 123.128 448.92 123.953 445.302Z" fill="#2F2E41"/>
<path d="M97.1211 323.713L102.211 385.324C102.211 385.324 102.381 422.156 107.81 429.284C113.24 436.413 113.409 439.977 113.409 439.977L124.607 434.207C124.607 434.207 118.839 424.591 120.026 423.119C120.758 422.185 121.279 421.104 121.553 419.949L118.499 381.93L124.268 315.735L97.1211 323.713Z" fill="#2F2E41"/>
<path d="M111.033 432.509L106.283 445.069L95.5088 440.563L101.193 431.151L111.033 432.509Z" fill="#FFB9B9"/>
<path d="M103.108 440.839C103.108 440.839 107.149 438.312 107.654 439.323C108.159 440.334 110.179 444.629 110.179 444.629L112.452 450.945C112.452 450.945 126.342 459.787 114.473 460.292C102.603 460.797 99.5723 453.976 99.5723 453.976C99.5723 453.976 86.1873 448.165 88.2077 444.628C90.2281 441.092 97.2994 437.423 97.2994 437.423C97.2994 437.423 100.835 443.618 103.108 440.839Z" fill="#2F2E41"/>
<path d="M140.217 323.882L142.931 380.572C142.931 380.572 118.16 431.83 115.445 433.188C114.636 433.606 113.919 434.182 113.336 434.881C112.754 435.581 112.317 436.39 112.052 437.262L97.1211 433.528L103.908 422.665L118.839 386.343C118.839 386.343 121.214 385.324 121.893 381.93C122.571 378.535 123.929 378.535 120.535 377.856C117.142 377.177 117.142 373.783 117.142 373.783L105.944 322.185L140.217 323.882Z" fill="#2F2E41"/>
<path d="M141.398 223.541C142.599 216.138 137.574 209.164 130.174 207.962C122.775 206.761 115.803 211.788 114.602 219.191C113.401 226.593 118.426 233.567 125.826 234.769C133.225 235.97 140.197 230.943 141.398 223.541Z" fill="#FFB9B9"/>
<path d="M115.954 222.214C115.954 222.214 114.936 239.527 113.579 241.224C112.221 242.921 127.831 242.582 127.831 242.582C127.831 242.582 126.813 227.985 127.831 226.627C128.849 225.269 115.954 222.214 115.954 222.214Z" fill="#FFB9B9"/>
<path d="M141.233 327.617C141.233 327.617 102.888 324.223 95.7637 327.617C95.7637 327.617 98.3863 317.884 97.7086 316.867C97.2158 316.123 98.5755 288.399 98.1487 272.407C97.9067 263.383 95.8253 254.57 101.876 247.87C103.935 245.594 106.232 243.684 108.657 242.751C108.657 242.751 107.979 236.302 111.372 235.963C111.372 235.963 124.269 234.602 129.017 238.679C130.535 239.973 131.49 243.917 131.592 247.315C129.242 258.875 130.073 271.703 132.23 285.01C132.362 285.855 132.507 286.705 132.652 287.554C134.94 300.751 138.399 314.358 141.233 327.617Z" fill="#BA5378"/>
<path d="M120.909 225.367C122.057 225.298 123.178 225.686 124.318 225.838C128.396 226.379 132.639 223.419 133.539 219.403C133.612 218.868 133.771 218.349 134.011 217.865C134.639 216.84 136.068 216.645 137.247 216.881C138.425 217.116 139.542 217.668 140.742 217.731C142.595 217.828 144.374 216.687 145.362 215.116C146.295 213.494 146.692 211.619 146.495 209.759L145.607 210.692C145.246 209.928 145.107 209.078 145.205 208.238C144.734 208.113 144.239 208.111 143.767 208.231C143.295 208.352 142.862 208.592 142.51 208.928C141.726 209.012 142.318 207.475 141.736 206.944C141.453 206.77 141.115 206.707 140.789 206.767C139.122 206.783 137.774 205.508 136.461 204.481C134.186 202.707 131.525 201.493 128.695 200.937C126.813 200.57 124.812 200.511 123.028 201.212C121.587 201.859 120.287 202.782 119.201 203.928C116.407 206.615 113.933 209.773 112.771 213.472C111.826 216.501 111.799 219.743 112.694 222.787C113.162 224.369 114.574 229.784 116.64 229.91C119.236 230.069 117.677 225.559 120.909 225.367Z" fill="#2F2E41"/>
<path d="M126.528 246.875L131.391 247.396C131.391 247.396 136.165 256.661 135.818 258.594C135.471 260.526 134.717 259.353 136.865 262.445C139.014 265.536 145.11 273.528 145.865 274.701C146.62 275.874 167.202 260.165 165.923 255.458C165.923 255.458 172.423 260.123 175.208 260.744C175.208 260.744 153.997 288.573 151.041 292.134C148.085 295.696 145.706 294.964 141.644 292.853C137.582 290.741 117.031 269.679 117.031 269.679L126.528 246.875Z" fill="#BA5378"/>
<path opacity="0.1" d="M132.653 287.554L115.751 270.646L120.028 269.251L132.23 285.01C132.362 285.855 132.508 286.705 132.653 287.554Z" fill="black"/>
</g>
<circle cx="300" cy="300" r="298.5" stroke="#E2A7BC" stroke-width="3" stroke-dasharray="10 10"/>
<defs>
<clipPath id="clip0">
<rect x="88" y="140" width="425" height="321" fill="white"/>
</clipPath>
</defs>
</svg>
